Coordinates
version=1
nRows=27
nColumns=12
inDegrees=yes

Units are S.I. units (second, meters, Newtons, ...)
Angles are in degrees

endheader
time	SC_y	SC_z	SC_x	AC_y	AC_z	AC_x	GH_y	GH_z	GH_yy	EL_x	PS_y
       0.0              -28.12          24.15          43.52          46.46         -10.42         -12.45          136.4          55.48         -40.45          40.93          111.3
   0.04114              -28.12          24.15          43.53          46.46         -10.42         -12.45          136.4          55.48         -40.44          40.94          111.3
   0.08227              -28.11          24.15          43.53          46.46         -10.42         -12.45          136.4          55.48         -40.44          40.94          111.3
    0.1234              -28.11          24.15          43.53          46.46         -10.41         -12.45          136.4          55.47         -40.43          40.95          111.3
    0.1645              -28.11          24.15          43.53          46.46         -10.41         -12.45          136.4          55.47         -40.43          40.96          111.3
    0.2057              -28.11          24.15          43.53          46.46         -10.41         -12.45          136.4          55.47         -40.42          40.96          111.3
    0.2468              -28.11          24.16          43.54          46.46          -10.4         -12.45          136.4          55.47         -40.42          40.97          111.3
    0.2879              -28.11          24.16          43.54          46.46          -10.4         -12.45          136.4          55.46         -40.41          40.98          111.3
    0.3291              -28.11          24.16          43.54          46.46         -10.39         -12.45          136.4          55.46          -40.4          40.98          111.3
    0.3702              -28.11          24.16          43.54          46.46         -10.39         -12.45          136.4          55.46         -40.39          40.99          111.3
    0.4114              -28.11          24.16          43.54          46.46         -10.38         -12.46          136.4          55.45         -40.39           41.0          111.3
    0.4525              -28.11          24.17          43.55          46.46         -10.38         -12.46          136.3          55.45         -40.38          41.01          111.2
    0.4936              -28.11          24.17          43.55          46.46         -10.37         -12.46          136.3          55.45         -40.37          41.02          111.2
    0.5348               -28.1          24.17          43.55          46.46         -10.36         -12.46          136.3          55.44         -40.36          41.03          111.2
    0.5759               -28.1          24.18          43.56          46.46         -10.36         -12.46          136.3          55.44         -40.34          41.04          111.2
     0.617               -28.1          24.18          43.56          46.46         -10.35         -12.46          136.3          55.43         -40.33          41.05          111.2
    0.6582               -28.1          24.18          43.57          46.46         -10.34         -12.46          136.3          55.43         -40.32          41.07          111.2
    0.6993               -28.1          24.19          43.57          46.46         -10.33         -12.47          136.2          55.42          -40.3          41.08          111.2
    0.7404               -28.1          24.19          43.57          46.46         -10.32         -12.47          136.2          55.41         -40.29           41.1          111.2
    0.7816              -28.09           24.2          43.58          46.46         -10.31         -12.47          136.2          55.41         -40.27          41.12          111.2
    0.8227              -28.09           24.2          43.59          46.46          -10.3         -12.47          136.2           55.4         -40.25          41.14          111.1
    0.8638              -28.09          24.21          43.59          46.46         -10.29         -12.48          136.2          55.39         -40.23          41.16          111.1
     0.905              -28.09          24.21           43.6          46.46         -10.27         -12.48          136.1          55.38         -40.21          41.18          111.1
    0.9461              -28.08          24.22          43.61          46.46         -10.25         -12.48          136.1          55.37         -40.18          41.21          111.1
    0.9873              -28.08          24.23          43.62          46.46         -10.24         -12.49          136.0          55.36         -40.15          41.24          111.0
     1.028              -28.07          24.24          43.63          46.46         -10.22         -12.49          136.0          55.35         -40.12          41.27          111.0
      1.07              -28.07          24.25          43.64          46.46         -10.19          -12.5          136.0          55.33         -40.08          41.31          111.0
